<?xml version="1.0"?>
<svg xmlns="http://www.w3.org/2000/svg" viewBox="0 0 64 64" width="512" height="512"><g id="pudding-2" data-name="pudding"><polygon points="54 56 10 56 12.21 31 51.79 31 54 56" style="fill:#ffeb99"/><path d="M61,56v1a4,4,0,0,1-4,4H7a4,4,0,0,1-4-4V56Z" style="fill:#009698"/><path d="M37,4h3a4.985,4.985,0,0,1-5,5H32a4.985,4.985,0,0,1,5-5Z" style="fill:#64c37d"/><circle cx="32" cy="17" r="5" style="fill:#d80027"/><path d="M51.79,31H47V43.5A3.5,3.5,0,0,1,43.5,47,3.517,3.517,0,0,1,40,43.5V35a3,3,0,0,1-6,0V31H12.21l.63-7.18A1.993,1.993,0,0,1,14.83,22H49.17a1.993,1.993,0,0,1,1.99,1.82Z" style="fill:#a97c50"/><path d="M61,55H54.92L52.16,23.74A3,3,0,0,0,49.17,21H36.46A5.984,5.984,0,0,0,33,11.09V10h2a6,6,0,0,0,6-6,1,1,0,0,0-1-1H37a5.979,5.979,0,0,0-4,1.54V3H31v8.09A5.984,5.984,0,0,0,27.54,21H14.83a3,3,0,0,0-2.99,2.74L9.08,55H3a1,1,0,0,0-1,1v1a5,5,0,0,0,5,5H57a5,5,0,0,0,5-5V56A1,1,0,0,0,61,55ZM37,5h1.87A4,4,0,0,1,35,8H33.13A4,4,0,0,1,37,5Zm-6,8.14V14h2v-.86a4,4,0,1,1-2,0ZM13.83,23.91a1,1,0,0,1,1-.91H49.17a1,1,0,0,1,1,.91L50.7,30H47a1,1,0,0,0-1,1V43.5A2.5,2.5,0,0,1,43.5,46,2.509,2.509,0,0,1,41,43.5V32H39v3a2.006,2.006,0,0,1-2,2,2.015,2.015,0,0,1-2-2V31a1,1,0,0,0-1-1H13.3ZM13.12,32H33v3a3.995,3.995,0,0,0,4,4,3.906,3.906,0,0,0,2-.56V43.5A4.524,4.524,0,0,0,43.5,48,4.507,4.507,0,0,0,48,43.5V32h2.88l2.03,23H11.09ZM57,60H7a3.009,3.009,0,0,1-3-3H60A3.009,3.009,0,0,1,57,60Z"/></g></svg>
