<svg id="Layer_1" enable-background="new 0 0 512 512" height="512" viewBox="0 0 512 512" width="512" xmlns="http://www.w3.org/2000/svg"><g><g><g><g><path d="m22.988 309.446h242.988v195.054h-242.988z" fill="#fa7592"/><path d="m265.976 309.446h80v195.054h-80z" fill="#f55577"/><path d="m22.988 134.392h242.988v185.054h-242.988z" fill="#f2eacb"/><path d="m345.976 319.446v-185.054l-40-83.446-40 83.446v185.054z" fill="#e3dbbe"/></g><path d="m62.988 7.5h242.988v43.446h-242.988z" fill="#f2eacb"/><path d="m265.976 134.392h-242.988l40-83.446h242.988z" fill="#f9f2d7"/><circle cx="144.482" cy="319.446" fill="#c6e7f7" r="76.715"/></g><g><path d="m322.521 341.71v133.652c0 16.092 13.045 29.138 29.138 29.138h108.216c16.092 0 29.138-13.045 29.138-29.138v-133.652z" fill="#f9f2d7"/><path d="m449.012 341.71v133.652c0 16.092-13.045 29.138-29.138 29.138h40c16.092 0 29.138-13.045 29.138-29.138v-133.652z" fill="#f2eacb"/><path d="m322.521 265.372h166.492v104.628h-166.492z" fill="#c6e7f7"/><path d="m449.012 265.372h40v104.628h-40z" fill="#bae3f7"/></g></g><path d="m489.012 257.872h-135.536v-123.48c0-1.122-.252-2.23-.737-3.242l-39.263-81.908v-41.742c0-4.142-3.357-7.5-7.5-7.5h-242.988c-4.143 0-7.5 3.358-7.5 7.5v41.742l-39.262 81.908c-.481 1.003-.737 2.129-.737 3.242v370.108c0 4.142 3.357 7.5 7.5 7.5h436.887c20.201 0 36.637-16.436 36.637-36.638v-22.658c0-9.697-15-9.697-15 0v22.658c0 11.931-9.706 21.638-21.637 21.638h-108.218c-11.931 0-21.638-9.707-21.638-21.638v-97.862h151.491v29.707c0 9.697 15 9.697 15 0v-141.835c.001-4.143-3.357-7.5-7.499-7.5zm-150.536 0h-15.955c-4.143 0-7.5 3.358-7.5 7.5v46.574h-41.545v-175.85l32.5-67.8 32.5 67.801zm-65 69.074h41.545v148.417c0 8.089 2.64 15.57 7.096 21.638h-48.641zm-45.132-15c-3.809-42.934-39.956-76.714-83.863-76.714-11.867 0-23.345 2.421-34.113 7.197-8.865 3.932-2.783 17.643 6.082 13.712 8.841-3.921 18.271-5.909 28.031-5.909 38.165 0 69.215 31.049 69.215 69.214s-31.05 69.215-69.215 69.215-69.215-31.05-69.215-69.215c0-12.227 3.229-24.241 9.338-34.743 4.874-8.382-8.092-15.926-12.967-7.542-6.183 10.632-9.934 22.53-11.028 34.785h-30.121v-170.054h227.987v170.054zm-157.856-296.946h227.987v28.446h-227.987zm-2.778 43.446h226.354l-32.81 68.446h-226.354zm-37.222 268.5h30.13c3.809 42.934 39.956 76.715 83.863 76.715s80.054-33.781 83.863-76.715h30.131v170.054h-227.987zm299.533 35.554v-89.628h151.491v89.628z" fill="#060606"/></g></svg>