<svg width="1030.47472" height="865.22829" xmlns="http://www.w3.org/2000/svg">
 <title>healthy_options</title>

 <g>
  <title>background</title>
  <rect fill="none" id="canvas_background" height="402" width="582" y="-1" x="-1"/>
 </g>
 <g>
  <title>Layer 1</title>
  <path id="svg_2" fill="#3f3d56" d="m596.241178,94.206079l0,648.19995a29.13911,29.13911 0 0 1 -29.13,29.11005l-263.15,0a29.0791,29.0791 0 0 1 -29.13,-29.11l0,-648.2a29.12749,29.12749 0 0 1 29.13,-29.13l39.38,0l0,5.05a23.987,23.987 0 0 0 23.98,23.99l133.84,0a23.78923,23.78923 0 0 0 14.22,-4.68a22.28455,22.28455 0 0 0 2.36,-1.98a23.917,23.917 0 0 0 7.4,-17.33l0,-5.05l41.97,0a29.12108,29.12108 0 0 1 29.13,29.13z"/>
  <rect id="svg_3" fill="#f9a826" height="186" width="244.46459" y="298.74611" x="313.30389"/>
  <path id="svg_4" fill="#f9a826" d="m184.571358,267.406789c21.7658,0.4669 39.08024,16.24012 39.08024,16.24012s-17.97491,15.01622 -39.74071,14.54931s-39.08022,-16.24007 -39.08022,-16.24007s17.9749,-15.01626 39.74069,-14.54936z"/>
  <path id="svg_5" fill="#f9a826" d="m75.144038,193.108799c19.66446,9.34222 42.21331,3.00713 42.21331,3.00713s-9.33355,-21.48183 -28.998,-30.824s-42.21331,-3.00713 -42.21331,-3.00713s9.33353,21.48178 28.998,30.824z"/>
  <path id="svg_6" fill="#3f3d56" d="m77.142978,183.825019c21.68046,-1.98136 40.65734,11.74679 40.65734,11.74679s-16.17409,16.94056 -37.85456,18.92192s-40.65734,-11.74679 -40.65734,-11.74679s16.1741,-16.94056 37.85456,-18.92192z"/>
  <path id="svg_7" fill="#3f3d56" d="m156.616778,187.578629c-2.07806,21.67141 11.56528,40.70935 11.56528,40.70935s17.01256,-16.09836 19.09062,-37.76977s-11.56532,-40.70934 -11.56532,-40.70934s-17.01251,16.09835 -19.09058,37.76976z"/>
  <path id="svg_8" fill="#3f3d56" d="m258.721028,320.488719c-11.37151,18.56494 -7.45916,41.65774 -7.45916,41.65774s22.34921,-7.00691 33.72072,-25.57185s7.45917,-41.65774 7.45917,-41.65774s-22.34921,7.00691 -33.72073,25.57185z"/>
  <path id="svg_9" fill="#3f3d56" d="m225.730818,522.337309l1.65722,-1.12011a51.91882,51.91882 0 0 1 -9.16308,-28.79249c0.0464,-15.05756 7.4424,-28.98486 14.59521,-42.45356c1.32764,-2.5 2.65088,-4.99219 3.92383,-7.48242a163.33418,163.33418 0 0 0 12.7041,-31.89258c11.09473,-41.23 0.17139,-89.87353 -29.21924,-130.12207c-23.31543,-31.92871 -58.07177,-59.84863 -106.2539,-85.35547l-0.93555,1.76758c47.90772,25.36133 82.44141,53.08936 105.57422,84.76758c29.03711,39.76367 39.8418,87.77246 28.90283,128.42285a161.39429,161.39429 0 0 1 -12.55273,31.50195c-1.269,2.481 -2.58741,4.96338 -3.91016,7.45459c-7.2666,13.6836 -14.78076,27.833 -14.82861,43.38575a53.937,53.937 0 0 0 9.50586,29.9184z"/>
  <circle id="svg_10" fill="#3f3d56" r="19" cy="178.74651" cx="19.00039"/>
  <polygon id="svg_11" fill="#f9a826" points="286.462 487.161 167.193 477.222 167.193 302.294 286.462 296.331 286.462 487.161"/>
  <polygon id="svg_12" fill="#f9a826" points="584.61 487.161 703.879 477.222 703.879 302.294 584.61 296.331 584.61 487.161"/>
  <path id="svg_13" fill="#fff" d="m476.993948,368.559599a23.83091,23.83091 0 0 0 -26.1499,-3.32422a35.29319,35.29319 0 0 1 -11.6073,3.32074a67.1811,67.1811 0 0 1 4.71862,-25.51606l0.52735,-1.36132l-7.00977,0l-0.20117,0.73584a77.58937,77.58937 0 0 0 -1.843,8.725a22.62232,22.62232 0 0 0 -1.46655,-3.70257c-4.917,-9.74854 -16.27783,-13.73584 -16.75928,-13.90039l-0.96875,-0.332l-0.30908,0.97608c-0.15332,0.48535 -3.70068,11.99072 1.21582,21.73975c3.5202,6.97991 10.34271,11.00531 14.11151,12.78973a36.26579,36.26579 0 0 1 -13.71844,-3.66962a15.99952,15.99952 0 0 0 -16.938,1.42969c-13.08838,9.9458 -20.59522,24.5249 -20.59522,39.99951c0,20.32813 13.16456,38.94434 33.53858,47.42676a15.08751,15.08751 0 0 0 5.79834,1.15137a15.37923,15.37923 0 0 0 7.85107,-2.15332a20.76632,20.76632 0 0 1 20.8086,-0.042a15.34188,15.34188 0 0 0 13.66015,0.96192c20.25537,-8.51563 33.34326,-27.09961 33.34326,-47.34473c-0.00001,-14.49073 -6.39551,-27.95411 -18.00684,-37.91016zm-37.99072,-24.88086l2.57373,0a68.95677,68.95677 0 0 0 -4.356,24.24121l-0.45947,0a72.747,72.747 0 0 1 2.24174,-24.24121zm-20.07618,11.3413c-3.73291,-7.40087 -2.0957,-16.22216 -1.37207,-19.19873c2.82276,1.18457 10.88135,5.10157 14.6211,12.51612c3.73193,7.3999 2.0957,16.21972 1.37207,19.19775c-2.82471,-1.18848 -10.88965,-5.11572 -14.6211,-12.51514zm41.95508,96.95069a13.32227,13.32227 0 0 1 -11.8706,-0.84278a22.76607,22.76607 0 0 0 -22.84424,0.04786a13.31121,13.31121 0 0 1 -11.85938,0.875c-19.626,-8.1709 -32.30713,-26.0625 -32.30713,-45.58106c0,-14.84375 7.21875,-28.84277 19.80518,-38.40674a13.85584,13.85584 0 0 1 8.38574,-2.7998a14.01605,14.01605 0 0 1 6.4253,1.55469a41.28479,41.28479 0 0 0 35.11669,0.20849a21.83042,21.83042 0 0 1 23.95752,3.05176c11.16211,9.56982 17.30957,22.49365 17.30957,36.3916c0,19.43848 -12.60742,37.29785 -32.11865,45.50098z"/>
  <path id="svg_14" fill="#fff" d="m226.500778,349.660149l0,-2.34766l0.93311,0l0,-7.314a2.95838,2.95838 0 0 0 -1.58057,-2.63721c-4.12744,-2.15332 -8.563,-2.15088 -13.18359,0.01026a2.98091,2.98091 0 0 0 -1.70215,2.69726l0,7.24365l0.93311,0l0,2.12549a16.2982,16.2982 0 0 0 -11.89991,15.75782l0,15.82617l1.77735,0.59277l-1.77735,1.18457l0,4.75586l1.77735,0.59277l-1.77735,1.18506l0,4.75586l1.77735,0.59229l-1.77735,1.18506l0,36.22265a10.66945,10.66945 0 0 0 10.65674,10.65733l15.71045,0a10.64474,10.64474 0 0 0 10.63281,-10.63281l0,-36.2471l-1.77734,-1.18506l1.77734,-0.59229l0,-4.75586l-1.77734,-1.18506l1.77734,-0.59277l0,-4.75586l-1.77734,-1.18457l1.77734,-0.59277l0,-16.64356a15.64615,15.64615 0 0 0 -10.5,-14.71829zm-12.98437,-10.477c4.08447,-1.90771 7.81787,-1.92383 11.41113,-0.04834a0.9755,0.9755 0 0 1 0.50635,0.86377l0,3.91406l-12.46631,0l0,-3.84375a0.97494,0.97494 0 0 1 0.54883,-0.88574zm21.48437,40.39746l-4.28906,1.42969l4.28906,2.85937l0,2.24414l-4.28906,1.42969l4.28906,2.85987l0,2.24414l-4.28906,1.4292l4.28906,2.85986l0,35.17676a8.64276,8.64276 0 0 1 -8.63281,8.63281l-15.71045,0a8.66684,8.66684 0 0 1 -8.65674,-8.65723l0,-35.15236l4.28907,-2.85986l-4.28907,-1.4292l0,-2.24414l4.28907,-2.85987l-4.28907,-1.42969l0,-2.24414l4.28907,-2.85937l-4.28907,-1.42969l0,-14.38476a14.31179,14.31179 0 0 1 11.12549,-14.00831l0.77442,-0.17919l0,-3.69581l10.60009,0l0,3.83008l0.7212,0.20948a13.62951,13.62951 0 0 1 9.7788,13.02636l0,15.20217z"/>
  <path id="svg_15" fill="#fff" d="m696.564258,377.047879l-5.03515,-1.00635l1.18554,-2.37109l-2.30957,-0.46241l0.39942,-2.40136l-2.52149,-0.4209l0,-2.27783l-2.0459,-0.58448l1.94239,-2.42724l-3.37014,0l0.7041,-1.75782l-2.49219,-0.415l0.84571,-2.96386l-2.69629,0l0,-2.76563l-1,0c-3.15039,0 -4.90723,3.74219 -5.48438,5.24073c-17.39258,3.0332 -67.8916,38.01171 -73.65527,42.03417c-2.39453,-0.77685 -5.94629,1.04395 -6.6875,1.44825l-1.17383,0.64013l1.69336,1.69287l-0.50488,1.51368l3.10742,1.165l-0.68067,1.70117l1.957,1.63183l-1.75782,1.31934l2.64551,1.58789l-0.46484,2.32031l2.95508,0.42285l0,2.32227l1.71582,0.34375l-0.85547,2.998l1.90527,0l0,2.37109l1.85938,0l0.84277,2.52539l0.86523,-0.17383c2.01172,-0.40234 3.73438,-3.18554 4.40821,-4.41992c16.75,-2.98926 68.46386,-39.373 73.498,-42.936c5.876,0.7041 8.03516,-0.86621 8.2666,-1.05079l0.95606,-0.76513l-2.2832,-1.90186l3.26572,-2.17722zm-13.59972,6.04001l-0.38965,-0.05225l-0.32129,0.228c-0.57129,0.40576 -57.28516,40.58545 -73.45313,42.895l-0.51855,0.07422l-0.23438,0.46875a12.00459,12.00459 0 0 1 -2.47363,3.38183l-0.65332,-1.959l-1.30078,0l0,-2.37109l-1.25488,0l0.72461,-2.53321l-2.23535,-0.44726l0,-2.418l-2.57813,-0.36816l0.32617,-1.63086l-1.30566,-0.78321l1.40234,-1.05176l-2.7832,-2.31933l0.89941,-2.25l-3.21484,-1.20606l0.28613,-0.85742l-0.62109,-0.62207c1.502,-0.624 3.31836,-1.08838 4.09863,-0.62158l0.55762,0.33447l0.53125,-0.373c0.56738,-0.398 56.89648,-39.79639 73.8457,-42.10743l0.63281,-0.08642l0.18848,-0.61035c0.291,-0.94532 1.32617,-3.3335 2.78516,-4.15088l0,2.48584l2.0459,0l-0.73438,2.56836l2.25,0.375l-0.87793,2.19336l5.4288,0l-1.21973,1.5249l3.48535,0.9956l0,0.28627l2.2207,0.37012l-0.38964,2.33984l1.6416,0.32764l-1.18555,2.37109l2.86719,0.57373l-1.47656,0.98389l2.123,1.76953a15.9767,15.9767 0 0 1 -5.85344,0.09468l-3.26574,2.17722z"/>
  <circle id="svg_16" fill="#f9a826" r="29" cy="540.74611" cx="435.53619"/>
  <polygon id="svg_17" fill="#fff" points="453.795 537.882 438.4 537.882 438.4 522.487 432.672 522.487 432.672 537.882 417.277 537.882 417.277 543.61 432.672 543.61 432.672 559.005 438.4 559.005 438.4 543.61 453.795 543.61 453.795 537.882"/>
  <polygon id="svg_18" fill="#fff" points="527.001 541.746 512.001 534.746 512.001 538.746 477.001 538.746 477.001 544.746 512.001 544.746 512.001 548.746 527.001 541.746"/>
  <polygon id="svg_19" fill="#fff" points="344.072 541.746 359.072 534.746 359.072 538.746 394.072 538.746 394.072 544.746 359.072 544.746 359.072 548.746 344.072 541.746"/>
  <rect id="svg_20" fill="#3f3d56" height="2" width="732.99951" y="771.74611" x="69.03643"/>
  <rect id="svg_21" fill="#fff" height="2" width="191.99951" y="159.74611" x="339.53643"/>
  <rect id="svg_22" fill="#fff" height="2" width="192" y="705.74611" x="340.00079"/>
 </g>
</svg>