<svg xmlns="http://www.w3.org/2000/svg" width="802.036" height="773.746" viewBox="0 0 802.036 773.746">
  <g id="opciones_tiempo" transform="translate(0 0)">
    <path id="Trazado_177" data-name="Trazado 177" d="M359.225,543.386c-2.774,0-5.577-.044-8.328-.13l.063-2c3.95.123,7.981.157,11.95.1l.027,2Q361.084,543.385,359.225,543.386Zm15.745-.464-.117-2c3.956-.233,7.963-.562,11.909-.975l.209,1.988c-3.976.417-8.013.748-12,.982Zm-36.1-.312c-3.989-.306-8.021-.706-11.982-1.192l.244-1.984c3.932.481,7.932.88,11.891,1.183Zm60.039-2.2-.3-1.977c3.931-.6,7.892-1.289,11.77-2.06l.39,1.961c-3.908.776-7.9,1.475-11.859,2.075Zm-83.935-.731c-3.941-.668-7.919-1.436-11.823-2.283l.424-1.955c3.875.842,7.822,1.6,11.733,2.266Zm107.548-3.962-.48-1.941c3.858-.954,7.738-2.009,11.532-3.134l.568,1.918c-3.822,1.133-7.731,2.2-11.619,3.157Zm-131.075-1.147c-3.866-1.028-7.756-2.159-11.562-3.363l.6-1.906c3.778,1.194,7.638,2.316,11.474,3.336Zm154.158-5.7-.656-1.889c3.744-1.3,7.51-2.709,11.194-4.184l.742,1.857c-3.711,1.486-7.506,2.9-11.28,4.215ZM268.463,527.3c-3.754-1.38-7.532-2.869-11.228-4.426l.776-1.844c3.667,1.545,7.416,3.022,11.142,4.393Zm199.475-7.368-.828-1.82c3.6-1.634,7.21-3.378,10.742-5.184l.91,1.781c-3.559,1.819-7.2,3.576-10.824,5.223ZM489.336,509l-.99-1.736c3.448-1.968,6.891-4.036,10.229-6.148l1.068,1.689c-3.364,2.13-6.832,4.215-10.307,6.2ZM509.66,496.14l-1.145-1.639c3.247-2.269,6.487-4.645,9.631-7.061l1.219,1.586C516.2,491.461,512.932,493.855,509.66,496.14Zm-304.826-2.816c-3.228-2.345-6.453-4.8-9.585-7.3l1.248-1.562c3.108,2.481,6.309,4.919,9.512,7.245Zm323.9-11.846-1.289-1.529c3.026-2.554,6.038-5.215,8.953-7.91l1.357,1.469c-2.937,2.716-5.972,5.4-9.022,7.971Zm-342.728-3.186c-3.006-2.633-5.993-5.371-8.877-8.14l1.385-1.443c2.862,2.748,5.826,5.466,8.81,8.079Zm360.4-13.161-1.424-1.4c2.79-2.827,5.55-5.753,8.2-8.7l1.486,1.338C552,459.335,549.222,462.282,546.41,465.131Zm-377.773-3.512c-2.758-2.9-5.482-5.9-8.1-8.91l1.511-1.311c2.594,2.989,5.3,5.964,8.035,8.842Zm393.893-14.38-1.545-1.27c2.521-3.067,5-6.232,7.378-9.409l1.6,1.2c-2.394,3.2-4.895,6.392-7.435,9.481Zm-409.671-3.8c-2.477-3.13-4.916-6.361-7.25-9.6l1.623-1.168c2.316,3.218,4.736,6.425,7.195,9.532Zm424.1-15.5-1.654-1.123c2.23-3.284,4.415-6.664,6.492-10.048l1.705,1.047c-2.095,3.409-4.3,6.815-6.543,10.124Zm-438.151-4.029c-2.179-3.341-4.312-6.778-6.34-10.22l1.723-1.016c2.013,3.415,4.129,6.827,6.292,10.142Zm450.766-16.511-1.75-.967c1.92-3.475,3.785-7.043,5.546-10.607l1.793.887c-1.773,3.59-3.654,7.185-5.589,10.686Zm10.681-21.621-1.832-.8c1.594-3.64,3.124-7.367,4.549-11.078l1.867.717c-1.436,3.74-2.979,7.5-4.584,11.164Zm-483.9-4.315c-1.533-3.68-3-7.444-4.364-11.19l1.88-.684c1.352,3.718,2.809,7.453,4.33,11.1ZM608.9,363.253l-1.9-.629c1.248-3.761,2.426-7.6,3.5-11.426l1.926.541C611.348,355.59,610.16,359.464,608.9,363.253ZM108.136,358.87c-1.19-3.812-2.308-7.705-3.323-11.574l1.935-.508c1.007,3.84,2.117,7.7,3.3,11.486Zm507.286-18.795-1.948-.453c.9-3.854,1.714-7.791,2.434-11.7l1.967.361c-.725,3.939-1.55,7.9-2.452,11.79Zm-513.394-4.494c-.834-3.906-1.589-7.886-2.243-11.83l1.973-.328c.65,3.915,1.4,7.864,2.227,11.74ZM619.78,316.4l-1.982-.271c.538-3.917.992-7.911,1.351-11.872l1.992.18c-.361,3.992-.819,8.016-1.36,11.964ZM98.086,311.831c-.472-3.959-.859-7.991-1.151-11.984l2-.146c.29,3.964.674,7.965,1.143,11.895Zm523.869-19.409-2-.09c.178-3.963.269-7.982.269-11.946h2C622.225,284.38,622.135,288.43,621.955,292.422Zm-525.626-4.6c-.068-2.452-.1-4.954-.1-7.435q0-2.309.04-4.608l2,.035q-.04,2.282-.04,4.573c0,2.462.035,4.945.1,7.38Zm2.411-23.948-2-.125c.25-4,.594-8.032,1.023-12l1.988.215c-.426,3.935-.768,7.94-1.016,11.907Zm520.194-12.2c-.4-3.943-.949-5.865-1.529-9.791l1.979-.292c.584,3.956,1.085,6.975,1.488,10.948ZM101.312,240.12l-1.977-.306c.613-3.957,1.325-7.944,2.116-11.854l1.96.4C102.627,232.236,101.92,236.194,101.312,240.12ZM615.386,230.1c-.763-3.9-1.623-7.829-2.559-11.672l1.943-.473c.942,3.873,1.81,7.831,2.578,11.761ZM106.05,216.7l-1.94-.486c.971-3.874,2.047-7.779,3.2-11.609l1.915.575C108.081,208.983,107.014,212.859,106.05,216.7Zm503.685-9.813c-1.115-3.808-2.334-7.639-3.622-11.387l1.891-.65c1.3,3.777,2.527,7.638,3.651,11.475Zm-496.8-13.1-1.887-.663c1.329-3.781,2.764-7.58,4.265-11.291l1.854.75c-1.49,3.683-2.915,7.453-4.234,11.2Zm489.033-9.495c-1.459-3.681-3.021-7.375-4.645-10.98l1.824-.821c1.636,3.633,3.21,7.355,4.68,11.064Zm-480.057-12.7-1.817-.835c1.67-3.638,3.448-7.286,5.284-10.842l1.777.917C125.333,164.361,123.569,167.982,121.911,171.592Zm470.269-9.036c-1.79-3.531-3.687-7.069-5.637-10.515l1.74-.985c1.966,3.473,3.876,7.038,5.68,10.6Zm-459.292-12.23-1.733-1c2-3.464,4.1-6.932,6.254-10.306l1.686,1.076c-2.138,3.348-4.226,6.79-6.206,10.228Zm447.542-8.535c-2.113-3.364-4.326-6.716-6.577-9.962l1.643-1.14c2.269,3.271,4.5,6.648,6.628,10.038ZM145.761,130.168l-1.635-1.152c2.306-3.27,4.716-6.529,7.167-9.687l1.58,1.226C150.442,123.689,148.049,126.923,145.761,130.168Zm421.064-7.992c-2.41-3.157-4.92-6.295-7.462-9.327l1.533-1.285c2.561,3.056,5.09,6.217,7.519,9.4Zm-406.411-10.9-1.522-1.3c2.587-3.039,5.284-6.064,8.015-8.991l1.462,1.364C165.659,105.258,162.983,108.261,160.414,111.277Zm391.07-7.408c-2.687-2.924-5.474-5.823-8.282-8.614l1.41-1.419c2.83,2.813,5.638,5.733,8.345,8.679ZM176.719,93.8l-1.4-1.43c2.86-2.8,5.819-5.564,8.8-8.221l1.332,1.492C182.494,88.283,179.557,91.028,176.719,93.8Zm357.818-6.78c-2.944-2.67-5.984-5.3-9.035-7.828l1.275-1.541c3.073,2.543,6.137,5.2,9.1,7.888Zm-340-9.132-1.263-1.551c3.093-2.519,6.29-5,9.5-7.384l1.191,1.606C200.78,72.928,197.607,75.393,194.537,77.893Zm19.182-14.217L212.6,62.017c3.311-2.228,6.719-4.409,10.13-6.484l1.039,1.709c-3.384,2.06-6.767,4.225-10.052,6.435Zm20.388-12.4-.96-1.755c3.5-1.917,7.094-3.776,10.674-5.527l.879,1.8c-3.552,1.738-7.117,3.583-10.592,5.485Zm241.37-4.634c-3.559-1.773-7.2-3.486-10.835-5.091l.809-1.829c3.659,1.617,7.333,3.343,10.919,5.13ZM255.529,40.8l-.795-1.835c3.66-1.586,7.4-3.108,11.128-4.522l.71,1.87C262.877,37.713,259.161,39.222,255.529,40.8Zm198.052-3.834c-3.7-1.436-7.493-2.806-11.266-4.072l.637-1.9c3.8,1.276,7.62,2.656,11.352,4.1ZM277.838,32.325l-.623-1.9c3.8-1.246,7.679-2.419,11.525-3.486l.535,1.927C285.457,29.924,281.609,31.088,277.838,32.325ZM430.9,29.352c-3.814-1.087-7.705-2.1-11.564-3.01L419.8,24.4c3.889.917,7.809,1.937,11.653,3.032ZM300.859,25.936l-.445-1.95c3.9-.89,7.866-1.7,11.8-2.41l.355,1.968c-3.9.7-7.84,1.509-11.706,2.392Zm106.788-2.067c-3.895-.731-7.861-1.381-11.791-1.933l.277-1.98c3.96.556,7.958,1.211,11.883,1.948Zm-83.275-2.176-.265-1.982c3.959-.528,7.985-.973,11.967-1.319l.174,1.992C332.3,20.728,328.3,21.169,324.372,21.693Zm59.616-1.147c-3.939-.371-7.949-.657-11.919-.849l.1-2c4,.194,8.039.482,12.009.856Zm-35.815-.929-.084-2c3.676-.153,7.422-.231,11.136-.232h.905l-.006,2h-.9c-3.685,0-7.4.079-11.051.23Z" transform="translate(-84.763 -17.386)" fill="#3f3d56"/>
    <path id="Trazado_178" data-name="Trazado 178" d="M681,111.592v648.2a29.139,29.139,0,0,1-29.13,29.11H388.724a29.079,29.079,0,0,1-29.13-29.11v-648.2a29.128,29.128,0,0,1,29.133-29.13H428.1v5.05a23.988,23.988,0,0,0,23.983,23.99H585.924a23.789,23.789,0,0,0,14.22-4.68,22.288,22.288,0,0,0,2.36-1.98,23.917,23.917,0,0,0,7.4-17.33v-5.05h41.97A29.121,29.121,0,0,1,681,111.592Z" transform="translate(-84.763 -17.386)" fill="#3f3d56"/>
    <rect id="Rectángulo_23" data-name="Rectángulo 23" width="244.465" height="186" transform="translate(313.304 298.746)" fill="#f9a826"/>
    <path id="Trazado_179" data-name="Trazado 179" d="M269.334,284.793c21.766.467,39.08,16.24,39.08,16.24s-17.975,15.016-39.741,14.549-39.081-16.24-39.081-16.24S247.568,284.326,269.334,284.793Z" transform="translate(-84.763 -17.386)" fill="#f9a826"/>
    <path id="Trazado_180" data-name="Trazado 180" d="M159.907,210.495c19.665,9.342,42.213,3.007,42.213,3.007s-9.334-21.482-29-30.824-42.213-3.007-42.213-3.007S140.242,201.152,159.907,210.495Z" transform="translate(-84.763 -17.386)" fill="#f9a826"/>
    <path id="Trazado_181" data-name="Trazado 181" d="M161.906,201.211c21.68-1.981,40.657,11.747,40.657,11.747S186.389,229.9,164.709,231.88s-40.657-11.747-40.657-11.747S140.225,203.192,161.906,201.211Z" transform="translate(-84.763 -17.386)" fill="#3f3d56"/>
    <path id="Trazado_182" data-name="Trazado 182" d="M241.379,204.964c-2.078,21.671,11.565,40.709,11.565,40.709s17.013-16.1,19.091-37.77S260.47,167.2,260.47,167.2,243.457,183.293,241.379,204.964Z" transform="translate(-84.763 -17.386)" fill="#3f3d56"/>
    <path id="Trazado_183" data-name="Trazado 183" d="M343.484,337.875c-11.371,18.565-7.459,41.658-7.459,41.658s22.349-7.007,33.721-25.572S377.2,312.3,377.2,312.3,354.855,319.31,343.484,337.875Z" transform="translate(-84.763 -17.386)" fill="#3f3d56"/>
    <path id="Trazado_184" data-name="Trazado 184" d="M310.493,539.723l1.657-1.12a51.918,51.918,0,0,1-9.163-28.792c.047-15.057,7.443-28.984,14.6-42.453,1.328-2.5,2.651-4.992,3.924-7.482a163.336,163.336,0,0,0,12.7-31.893c11.095-41.23.171-89.873-29.219-130.122-23.315-31.929-58.072-59.849-106.254-85.355l-.936,1.768c47.908,25.361,82.441,53.089,105.574,84.768,29.037,39.764,39.842,87.772,28.9,128.423a161.393,161.393,0,0,1-12.553,31.5c-1.269,2.481-2.587,4.963-3.91,7.455-7.267,13.684-14.781,27.833-14.829,43.386a53.937,53.937,0,0,0,9.505,29.918Z" transform="translate(-84.763 -17.386)" fill="#3f3d56"/>
    <circle id="Elipse_4" data-name="Elipse 4" cx="19" cy="19" r="19" transform="translate(0 159.747)" fill="#3f3d56"/>
    <path id="Trazado_185" data-name="Trazado 185" d="M286.462,487.161l-119.269-9.939V302.294l119.269-5.963Z" fill="#f9a826"/>
    <path id="Trazado_186" data-name="Trazado 186" d="M584.61,487.161l119.269-9.939V302.294L584.61,296.331Z" fill="#f9a826"/>
    <path id="Trazado_187" data-name="Trazado 187" d="M561.757,385.945a23.831,23.831,0,0,0-26.15-3.324A35.293,35.293,0,0,1,524,385.942a67.18,67.18,0,0,1,4.719-25.516l.527-1.361h-7.01l-.2.736a77.575,77.575,0,0,0-1.843,8.725,22.62,22.62,0,0,0-1.467-3.7c-4.917-9.749-16.278-13.736-16.759-13.9L501,350.59l-.309.976c-.153.485-3.7,11.991,1.216,21.74,3.52,6.98,10.343,11.005,14.111,12.79a36.266,36.266,0,0,1-13.718-3.67,16,16,0,0,0-16.938,1.43c-13.088,9.946-20.6,24.525-20.6,40,0,20.328,13.165,38.944,33.539,47.427a15.087,15.087,0,0,0,5.8,1.151,15.382,15.382,0,0,0,7.854-2.155,20.766,20.766,0,0,1,20.806-.041,15.342,15.342,0,0,0,13.66.962c20.255-8.516,33.343-27.1,33.343-47.345C579.763,409.365,573.368,395.9,561.757,385.945Zm-37.991-24.881h2.574a68.955,68.955,0,0,0-4.356,24.241h-.459a72.747,72.747,0,0,1,2.241-24.24ZM503.69,372.405c-3.733-7.4-2.1-16.222-1.372-19.2,2.823,1.185,10.881,5.1,14.621,12.516s2.1,16.22,1.372,19.2c-2.825-1.188-10.89-5.116-14.621-12.515Zm41.955,96.951a13.322,13.322,0,0,1-11.871-.843,22.766,22.766,0,0,0-22.844.048,13.311,13.311,0,0,1-11.859.875c-19.626-8.171-32.307-26.063-32.307-45.581,0-14.844,7.219-28.843,19.805-38.407a13.856,13.856,0,0,1,8.386-2.8,14.015,14.015,0,0,1,6.425,1.555,41.285,41.285,0,0,0,35.117.209,21.83,21.83,0,0,1,23.958,3.052c11.162,9.57,17.31,22.494,17.31,36.392,0,19.439-12.608,37.3-32.119,45.5Z" transform="translate(-84.763 -17.386)" fill="#fff"/>
    <path id="Trazado_188" data-name="Trazado 188" d="M311.263,367.046V364.7h.933v-7.314a2.958,2.958,0,0,0-1.581-2.637c-4.127-2.153-8.563-2.151-13.184.01a2.981,2.981,0,0,0-1.7,2.7V364.7h.933v2.125a16.3,16.3,0,0,0-11.9,15.758v15.826l1.777.593-1.777,1.185v4.756l1.777.593-1.777,1.185v4.756l1.777.592-1.777,1.185v36.223a10.669,10.669,0,0,0,10.657,10.657h15.711A10.645,10.645,0,0,0,321.763,449.5V413.252l-1.777-1.185,1.777-.592v-4.756l-1.777-1.185,1.777-.593v-4.756L319.986,399l1.777-.593V381.764a15.646,15.646,0,0,0-10.5-14.718Zm-12.984-10.477c4.084-1.908,7.818-1.924,11.411-.048a.976.976,0,0,1,.506.864V361.3H297.73v-3.844a.975.975,0,0,1,.549-.886Zm21.484,40.4-4.289,1.43,4.289,2.859V403.5l-4.289,1.43,4.289,2.86v2.244l-4.289,1.429,4.289,2.86V449.5a8.643,8.643,0,0,1-8.633,8.633H295.42a8.667,8.667,0,0,1-8.657-8.657V414.322l4.289-2.86-4.289-1.429v-2.244l4.289-2.86-4.289-1.43v-2.244l4.289-2.859-4.289-1.43V382.582a14.312,14.312,0,0,1,11.126-14.008l.774-.179v-3.7h10.6v3.83l.721.209a13.63,13.63,0,0,1,9.779,13.026Z" transform="translate(-84.763 -17.386)" fill="#fff"/>
    <path id="Trazado_189" data-name="Trazado 189" d="M781.327,394.434l-5.035-1.006,1.186-2.371-2.31-.462.4-2.4-2.521-.421v-2.278L771,384.91l1.942-2.427h-3.37l.7-1.758-2.492-.415.846-2.964h-2.7V374.58h-1c-3.15,0-4.907,3.742-5.484,5.241-17.393,3.033-67.892,38.012-73.655,42.034-2.395-.777-5.946,1.044-6.687,1.448l-1.174.64,1.693,1.693-.5,1.514,3.107,1.165-.681,1.7,1.957,1.632-1.758,1.319,2.646,1.588-.465,2.32,2.955.423v2.322l1.716.344-.855,3h1.905v2.371h1.859l.843,2.525.865-.174c2.012-.4,3.734-3.186,4.408-4.42,16.75-2.989,68.464-39.373,73.5-42.936,5.876.7,8.035-.866,8.267-1.051l.956-.765-2.283-1.9ZM770.993,398.3l-.39-.052-.321.228c-.571.406-57.285,40.585-73.453,42.895l-.519.074-.234.469a12,12,0,0,1-2.474,3.382l-.653-1.959h-1.3v-2.371h-1.255l.725-2.533-2.235-.447v-2.418L686.3,435.2l.326-1.631-1.306-.783,1.4-1.052-2.783-2.319.9-2.25-3.215-1.206.286-.857-.621-.622c1.5-.624,3.318-1.088,4.1-.622l.558.334.531-.373c.567-.4,56.9-39.8,73.846-42.107l.633-.086.188-.61c.291-.945,1.326-3.333,2.785-4.151v2.486h2.046l-.734,2.568,2.25.375-.878,2.193h2.163l-1.22,1.525,3.485,1v2.463l2.221.37-.39,2.34,1.642.328-1.186,2.371,2.867.574-1.477.984,2.123,1.77a15.976,15.976,0,0,1-5.853.1Z" transform="translate(-84.763 -17.386)" fill="#fff"/>
    <circle id="Elipse_5" data-name="Elipse 5" cx="29" cy="29" r="29" transform="translate(406.536 511.746)" fill="#f9a826"/>
    <path id="Trazado_190" data-name="Trazado 190" d="M453.8,537.882H438.4v-15.4h-5.728v15.4H417.277v5.728h15.395v15.4H438.4v-15.4h15.4Z" fill="#fff"/>
    <path id="Trazado_191" data-name="Trazado 191" d="M527,541.746l-15-7v4H477v6h35v4Z" fill="#fff"/>
    <path id="Trazado_192" data-name="Trazado 192" d="M344.072,541.746l15-7v4h35v6h-35v4Z" fill="#fff"/>
    <rect id="Rectángulo_24" data-name="Rectángulo 24" width="733" height="2" transform="translate(69.036 771.746)" fill="#3f3d56"/>
    <rect id="Rectángulo_25" data-name="Rectángulo 25" width="192" height="2" transform="translate(339.536 159.746)" fill="#fff"/>
    <rect id="Rectángulo_26" data-name="Rectángulo 26" width="192" height="2" transform="translate(340.001 705.746)" fill="#fff"/>
  </g>
</svg>
